<svg width="400" height="250" xmlns="http://www.w3.org/2000/svg">
  <defs>
    <linearGradient id="bg" x1="0%" y1="0%" x2="100%" y2="100%">
      <stop offset="0%" style="stop-color:#1e293b;stop-opacity:1" />
      <stop offset="100%" style="stop-color:#0f172a;stop-opacity:1" />
    </linearGradient>
  </defs>
  <rect width="100%" height="100%" fill="url(#bg)"/>
  
  <!-- Code editor mockup -->
  <rect x="20" y="30" width="360" height="190" rx="8" fill="#0f172a" stroke="#334155" stroke-width="1"/>
  
  <!-- Header bar -->
  <rect x="20" y="30" width="360" height="30" rx="8" fill="#1e293b"/>
  <circle cx="35" cy="45" r="4" fill="#ef4444"/>
  <circle cx="50" cy="45" r="4" fill="#f59e0b"/>
  <circle cx="65" cy="45" r="4" fill="#10b981"/>
  
  <!-- Code lines -->
  <rect x="35" y="80" width="80" height="3" fill="#3b82f6"/>
  <rect x="120" y="80" width="60" height="3" fill="#8b5cf6"/>
  <rect x="185" y="80" width="40" height="3" fill="#06b6d4"/>
  
  <rect x="35" y="95" width="120" height="3" fill="#64748b"/>
  <rect x="160" y="95" width="80" height="3" fill="#10b981"/>
  
  <rect x="35" y="110" width="60" height="3" fill="#f59e0b"/>
  <rect x="100" y="110" width="100" height="3" fill="#64748b"/>
  
  <rect x="35" y="125" width="90" height="3" fill="#3b82f6"/>
  <rect x="130" y="125" width="70" height="3" fill="#8b5cf6"/>
  
  <!-- Snippet icon -->
  <rect x="300" y="160" width="60" height="40" rx="4" fill="#1e293b" stroke="#3b82f6" stroke-width="2"/>
  <rect x="310" y="170" width="40" height="2" fill="#3b82f6"/>
  <rect x="310" y="175" width="30" height="2" fill="#64748b"/>
  <rect x="310" y="180" width="35" height="2" fill="#10b981"/>
  <rect x="310" y="185" width="25" height="2" fill="#f59e0b"/>
  
  <!-- Title -->
  <text x="200" y="240" font-family="Inter, sans-serif" font-size="12" font-weight="600" fill="#e2e8f0" text-anchor="middle">Code Snippet Manager</text>
</svg>